PathFileType	3	(X/Y/Z)	D:\Jess\Healthy\Labelled\HA18\20250730\SRRun01.trc
DataRate	CameraRate	NumFrames	NumMarkers	Units	OrigDataRate	OrigDataStartFrame	OrigNumFrames
250.0	250.0	4	33	mm	250.0	35000	2501
Frame#	Time	C7			T10			CLAV			LSHO			RSHO			LASIS			RASIS			LPSIS			RPSIS			LILCR			RILCR			LGTR			LTHI			LLTHI			LLEP			LPSH			LLSH			LDSH			LLMAL			LTOE			L5TH			LHEE			RGTR			RTHI			RLTHI			RLEP			RPSH			RLSH			RDSH			RLMAL			RTOE			R5TH			RHEE			
		X1	Y1	Z1	X2	Y2	Z2	X3	Y3	Z3	X4	Y4	Z4	X5	Y5	Z5	X6	Y6	Z6	X7	Y7	Z7	X8	Y8	Z8	X9	Y9	Z9	X10	Y10	Z10	X11	Y11	Z11	X12	Y12	Z12	X13	Y13	Z13	X14	Y14	Z14	X15	Y15	Z15	X16	Y16	Z16	X17	Y17	Z17	X18	Y18	Z18	X19	Y19	Z19	X20	Y20	Z20	X21	Y21	Z21	X22	Y22	Z22	X23	Y23	Z23	X24	Y24	Z24	X25	Y25	Z25	X26	Y26	Z26	X27	Y27	Z27	X28	Y28	Z28	X29	Y29	Z29	X30	Y30	Z30	X31	Y31	Z31	X32	Y32	Z32	X33	Y33	Z33	

1	139.996	1086.768382327229	1443.958352504779	-275.1478010544715	1003.236287465921	1206.269911452173	-284.6500386367837	1195.642150323576	1324.974696278108	-289.2113976516267	1127.564466544273	1401.830739189607	-440.9135205659767	1161.146214012947	1387.895942588762	-137.0173578747676	1150.719448186662	957.1693029134398	-413.1446361226836	1139.803915299086	947.6299706419265	-193.1981304504965	951.3311187005381	1002.718760978346	-324.9746705954913	949.4657846513858	999.691633633577	-284.9491656284479	1080.207698586187	1033.544118335828	-459.3093246056424	1079.404782961908	1028.768491221601	-154.1476120076606	1070.345381271649	871.7048445901205	-496.5623811213929	1248.465666327217	767.7297308686234	-409.0240995811406	1210.675109702064	634.6365845283572	-457.425510563465	1239.16802941341	532.1454045526383	-434.1299064773715	1261.784185660654	440.3816848771674	-399.7466444031139	1123.284545080321	342.7703805644853	-445.4760517235823	1155.382742432805	237.3717629776731	-400.5341053912527	1056.834508696582	166.0014860265007	-417.3459322824274	1186.29932732831	94.59654585003116	-442.4478579610393	1149.394309155924	74.87928806263443	-474.0594516712491	998.6947653673579	151.715482203661	-355.4122313867688	1055.388688676918	860.0579669436503	-121.3359367767716	1128.336603331565	678.8405214905265	-223.6568586704762	1017.802830465178	590.4761620189954	-175.1768379717554	964.0508876744351	464.5679090351782	-198.0927304714417	974.2440733605224	392.5599156942668	-250.5794872729755	844.4433252598822	309.2025566464854	-186.9712400327725	851.6946478409567	198.1697988428272	-257.4856340702783	776.1212910416166	149.2034973290158	-223.3963493334132	872.2374047871275	60.31997958859488	-240.810874064034	835.7364679631868	46.06054807053718	-196.5489120929247	684.6811026936605	154.420620243434	-272.1537679505523	
2	140	1087.093084056204	1446.227625462679	-275.2416124272818	1003.842373653796	1208.603416492965	-283.5842588892075	1195.873384438868	1327.698253285972	-290.3082014381827	1126.911467493966	1404.118395067838	-441.1283973286244	1162.235113777989	1390.757730456808	-138.1648860999353	1151.03059432211	959.9620244885116	-413.0753591151189	1141.066796236959	948.9655112484443	-193.9599985151305	952.4552996681884	1005.773893201503	-324.3006551743475	951.0022129621005	1002.373333389225	-283.7499276277633	1080.253918831121	1036.95484001536	-459.1974191479788	1083.05720415027	1029.810483057491	-154.1458161884425	1071.123504422842	875.5075156838947	-497.0437915212129	1248.448213619015	772.2805369220587	-408.648416981791	1209.935756655791	637.830909523616	-456.1641601171651	1238.661234091347	534.1181285462188	-433.4618882010857	1263.942279418063	442.7939914119797	-398.8928743485239	1131.154969082139	339.5078836453423	-445.1649258332877	1166.981121247776	236.5134738929596	-399.3433409250843	1072.361427679004	161.1432701971036	-416.3399100400308	1204.280103761479	96.57992554407681	-440.5477356179506	1168.760623741908	75.11032335368564	-472.3163824653235	1014.936561735622	144.299460326231	-354.5877113196265	1056.537637799573	861.481008252231	-121.6680138205046	1125.812960722545	680.1044474303951	-224.9156809001788	1013.451852894861	593.6839873623248	-175.4058046757116	957.488881093327	468.8143535905527	-197.878191456783	967.0365678444872	396.5182355511129	-250.1697928356056	837.2932301211465	313.6875556785813	-186.1777665301565	844.7321360531563	202.1005068439382	-256.4727627211897	769.0390120156086	152.7948634745314	-222.4828720535381	862.042631839343	60.5944968931428	-240.1919930268656	825.0952106404272	47.24256368460711	-196.2300352075123	678.3301197954852	160.7459564464199	-271.3985957812174	
3	140.004	1087.411422678839	1448.476389909134	-275.3339373524943	1004.445006408543	1210.917116222241	-282.5283212420744	1196.101130323737	1330.39846208617	-291.393648819851	1126.264543252695	1406.39165132221	-441.336438515827	1163.306448625319	1393.592714826732	-139.3084627994556	1151.34014199674	962.7290753339213	-412.9957796251012	1142.321725159592	950.2867664188045	-194.7107245854375	953.5838371783528	1008.799461145684	-323.6320115415874	952.5332942461157	1005.036202797	-282.5634050752139	1080.296181849801	1040.336407589824	-459.0822605600983	1086.690242391696	1030.838391187024	-154.1449788759742	1071.897888948245	879.2854016905692	-497.5134080682697	1248.459791717536	776.806321540853	-408.2867762478322	1209.180839512005	640.9897927394028	-454.9162424951547	1238.123105769585	536.0415472943456	-432.8053590631281	1266.056641548942	445.1634201995757	-398.0438523127406	1138.976227762347	336.2712071675657	-444.8651816570925	1178.495677656801	235.6780236196908	-398.1619901673409	1087.801986985997	156.3590813083007	-415.3511861601191	1222.131481593277	98.5940254983216	-438.6537038228828	1187.998184081446	75.39195977149234	-470.579915466348	1031.091542299333	136.9806458889278	-353.7847678998916	1057.676995294769	862.8998197898671	-121.9859461527318	1123.301710962585	681.3599786560716	-226.1360954140985	1009.119622759607	596.8917077448856	-175.6247894689342	950.9927010320234	473.0489905769993	-197.6618105410495	959.9096744554877	400.462761994487	-249.7684427339251	830.2177442911786	318.1571515799373	-185.3989934813613	837.8627628692531	205.9969390451452	-255.4557524693761	762.0435067691152	156.3676658691581	-221.569837109597	851.9581590461672	60.84739018907037	-239.5477146383538	814.5602440777117	48.42018492014133	-195.8878414687347	672.0673892462192	167.0346958171654	-270.6721434940822	
4	140.008	1087.719223600557	1450.67984228695	-275.4309056654812	1005.042665753686	1213.190157100515	-281.4927974078553	1196.322545754138	1333.052797349726	-292.4680159085774	1125.631415318155	1408.630271243797	-441.5392735678551	1164.347749167166	1396.375002316544	-140.4526475497681	1151.649205437225	965.4465198585805	-412.8983981085561	1143.566714028985	951.5812820008925	-195.4439431309668	954.7219071698876	1011.773856155924	-322.9730180805716	954.0569129987288	1007.670007038987	-281.4028889004756	1080.340114039461	1043.666497149108	-458.9645096450125	1090.292412724522	1031.851985908718	-154.1502030455777	1072.67107332717	883.014695512354	-497.9564190401441	1248.505413793495	781.2346220098328	-407.9316103480792	1208.385477171762	644.0616155030494	-453.7078774174848	1237.532195339561	537.8658938235833	-432.1711613399444	1268.093910222548	447.4557717885284	-397.1994708452543	1146.724811800854	333.0888457587689	-444.5824404243997	1189.866089682929	234.8971679189914	-396.9890870730569	1103.103786509794	151.7220375950643	-414.3824872416679	1239.754295629084	100.6907159152229	-436.7516301875703	1207.016647805007	75.79269374524844	-468.8350970373709	1047.110505719361	129.8461098035132	-353.0115826970767	1058.802284372075	864.3146043520281	-122.2786851579512	1120.836061915014	682.5976521819272	-227.2929941106387	1004.857500465427	600.0822077075367	-175.8360812255417	944.6506107806856	477.2409162808099	-197.4507825331434	952.9434685958826	404.3683297967772	-249.3955243863734	823.2921653390497	322.5984680428099	-184.6463070065199	831.1395627131822	209.8443259318222	-254.4396596580635	755.1896903885032	159.9210729325632	-220.6506232303735	842.0086972855014	61.0941142748942	-238.8914977064273	804.1695413338417	49.61451058891449	-195.5253496506048	665.9612345212466	173.2933178959345	-269.9463750662185	
